<svg width="59" height="59" viewBox="0 0 59 59" fill="none" xmlns="http://www.w3.org/2000/svg">
<mask id="path-1-inside-1_15_731" fill="white">
<path fill-rule="evenodd" clip-rule="evenodd" d="M32.4042 0.929928C30.6666 -0.309975 28.3334 -0.309977 26.5958 0.929926L2.27025 18.2875C1.20014 19.0511 0.565132 20.0642 0.304192 21.1363C0.107408 21.6729 0 22.2527 0 22.8576V53.8576C0 56.619 2.23858 58.8576 5 58.8576H54C56.7614 58.8576 59 56.619 59 53.8576V22.8576C59 22.2527 58.8926 21.673 58.6958 21.1363C58.4349 20.0642 57.7999 19.0511 56.7297 18.2875L32.4042 0.929928Z"/>
</mask>
<path d="M26.5958 0.929926L29.5 5L26.5958 0.929926ZM32.4042 0.929928L29.5 5L32.4042 0.929928ZM2.27025 18.2875L5.17448 22.3576H5.17448L2.27025 18.2875ZM0.304192 21.1363L4.99856 22.8576L5.09565 22.5928L5.16235 22.3188L0.304192 21.1363ZM58.6958 21.1363L53.8377 22.3188L53.9044 22.5928L54.0014 22.8576L58.6958 21.1363ZM56.7297 18.2875L53.8255 22.3576V22.3576L56.7297 18.2875ZM29.5 5L29.5 5L35.3084 -3.14014C31.8332 -5.61995 27.1668 -5.61995 23.6916 -3.14015L29.5 5ZM5.17448 22.3576L29.5 5L23.6916 -3.14015L-0.633968 14.2175L5.17448 22.3576ZM5.16235 22.3188C5.1601 22.328 5.15631 22.34 5.15035 22.3536C5.1443 22.3674 5.13738 22.3797 5.13085 22.3894C5.12422 22.3992 5.12089 22.4021 5.12452 22.3984C5.12815 22.3947 5.14291 22.3801 5.17448 22.3576L-0.633967 14.2175C-2.6932 15.6868 -4.01291 17.7309 -4.55397 19.9538L5.16235 22.3188ZM5 22.8576C5 22.8517 5.00048 22.8501 5.00019 22.8517C4.99993 22.8532 4.99938 22.8553 4.99856 22.8576L-4.39018 19.415C-4.78616 20.4949 -5 21.6569 -5 22.8576H5ZM5 53.8576V22.8576H-5V53.8576H5ZM5 53.8576H-5C-5 59.3805 -0.522846 63.8576 5 63.8576V53.8576ZM54 53.8576H5V63.8576H54V53.8576ZM54 53.8576V63.8576C59.5229 63.8576 64 59.3805 64 53.8576H54ZM54 22.8576V53.8576H64V22.8576H54ZM54.0014 22.8576C54.0006 22.8553 54.0001 22.8532 53.9998 22.8517C53.9995 22.8501 54 22.8517 54 22.8576H64C64 21.6569 63.7862 20.4949 63.3902 19.415L54.0014 22.8576ZM53.8255 22.3576C53.8571 22.3801 53.8719 22.3947 53.8755 22.3984C53.8791 22.4021 53.8758 22.3993 53.8692 22.3894C53.8626 22.3797 53.8557 22.3674 53.8497 22.3536C53.8437 22.34 53.8399 22.328 53.8377 22.3188L63.554 19.9538C63.0129 17.7309 61.6932 15.6868 59.634 14.2175L53.8255 22.3576ZM29.5 5L53.8255 22.3576L59.634 14.2175L35.3084 -3.14015L29.5 5Z" fill="white" mask="url(#path-1-inside-1_15_731)"/>
</svg>
